<?xml version="1.0" encoding="UTF-8" standalone="no"?>
<!-- Created with Inkscape (http://www.inkscape.org/) -->

<svg
   xmlns:dc="http://purl.org/dc/elements/1.1/"
   xmlns:cc="http://creativecommons.org/ns#"
   xmlns:rdf="http://www.w3.org/1999/02/22-rdf-syntax-ns#"
   xmlns:svg="http://www.w3.org/2000/svg"
   xmlns="http://www.w3.org/2000/svg"
   xmlns:sodipodi="http://sodipodi.sourceforge.net/DTD/sodipodi-0.dtd"
   xmlns:inkscape="http://www.inkscape.org/namespaces/inkscape"
   width="744.09448819"
   height="1052.3622047"
   id="svg2"
   version="1.1"
   inkscape:version="0.48.2 r9819"
   sodipodi:docname="drawing.svg">
  <defs
     id="defs4" />
  <sodipodi:namedview
     id="base"
     pagecolor="#ffffff"
     bordercolor="#666666"
     borderopacity="1.0"
     inkscape:pageopacity="0.0"
     inkscape:pageshadow="2"
     inkscape:zoom="0.98994949"
     inkscape:cx="-774.47944"
     inkscape:cy="908.04603"
     inkscape:document-units="px"
     inkscape:current-layer="layer1"
     showgrid="false"
     inkscape:window-width="1381"
     inkscape:window-height="923"
     inkscape:window-x="460"
     inkscape:window-y="0"
     inkscape:window-maximized="0"
     showguides="true"
     inkscape:guide-bbox="true" />
  <metadata
     id="metadata7">
    <rdf:RDF>
      <cc:Work
         rdf:about="">
        <dc:format>image/svg+xml</dc:format>
        <dc:type
           rdf:resource="http://purl.org/dc/dcmitype/StillImage" />
        <dc:title />
      </cc:Work>
    </rdf:RDF>
  </metadata>
  <g
     inkscape:label="Layer 1"
     inkscape:groupmode="layer"
     id="layer1">
    <path
       style="font-size:178.45812988px;font-style:normal;font-variant:normal;font-weight:normal;font-stretch:normal;line-height:125%;letter-spacing:0px;word-spacing:0px;fill:#000000;fill-opacity:1;stroke:none;font-family:Birds TFB;-inkscape-font-specification:Birds TFB"
       d="M -1159.4688 107.03125 C -1174.3652 107.0315 -1188.4462 112.44305 -1201.6875 123.25 C -1216.6812 125.48956 -1226.8916 127.52535 -1232.3438 129.375 L -1232.3438 130.84375 L -1213.9688 130.84375 C -1210.8531 130.84396 -1206.9823 131.62994 -1202.4062 133.1875 C -1194.1306 137.47166 -1187.2373 148.46781 -1181.6875 166.1875 C -1180.2272 194.8121 -1177.9282 212.96478 -1174.8125 220.65625 C -1166.4964 247.58983 -1143.611 271.03799 -1106.125 291 L -1106.125 151.96875 C -1107.347 149.04601 -1108.4813 145.85311 -1109.5312 142.375 C -1118.878 118.81362 -1134.9949 107.0315 -1157.875 107.03125 L -1159.4688 107.03125 z "
       id="path3038" />
    <g
       style="font-size:40px;font-style:normal;font-weight:normal;line-height:125%;letter-spacing:0px;word-spacing:0px;fill:#000000;fill-opacity:1;stroke:none;font-family:Sans"
       id="text3026"
       transform="matrix(17.454489,0,0,17.454489,4563.8822,-14886.991)" />
    <path
       style="font-size:439.85357666px;font-style:normal;font-variant:normal;font-weight:normal;font-stretch:normal;line-height:125%;letter-spacing:0px;word-spacing:0px;fill:#ffcc00;fill-opacity:1;stroke:none;font-family:Birds TFB;-inkscape-font-specification:Birds TFB"
       d="m -1181.3438,177.59375 c 1.4666,22.34447 3.5447,36.88399 6.25,43.5625 8.6314,27.95481 26.208,49.875 66.0313,70.375 0.9131,0.35509 2.0137,0.68356 2.9286,1.03125 l 0.089,-28.96875 c -27.7617,-16.39401 -54.8084,-43.13093 -75.2992,-86 z"
       id="path3035"
       inkscape:connector-curvature="0"
       sodipodi:nodetypes="cccccc" />
    <text
       xml:space="preserve"
       style="font-size:40px;font-style:normal;font-weight:normal;line-height:125%;letter-spacing:0px;word-spacing:0px;fill:#000000;fill-opacity:1;stroke:none;font-family:Sans"
       x="-858.57141"
       y="6.6478963"
       id="text3846"
       sodipodi:linespacing="125%"><tspan
         sodipodi:role="line"
         id="tspan3848"
         x="-858.57141"
         y="6.6478963" /></text>
    <path
       inkscape:connector-curvature="0"
       id="path3084"
       style="font-size:295.04852295px;font-style:normal;font-variant:normal;font-weight:bold;font-stretch:normal;line-height:125%;letter-spacing:0px;word-spacing:0px;fill:#000000;fill-opacity:1;stroke:none;font-family:Brig Maven;-inkscape-font-specification:Brig Maven Bold"
       d="m -1074.0805,96.014555 c 5.9695,2.07e-4 8.9542,2.385362 8.9542,7.155475 l 0,71.70072 0.7107,0 c 9.7595,-9.63785 21.272,-14.45683 34.5375,-14.45697 l 1.2792,0 c 26.436,1.4e-4 43.49149,17.32901 51.16668,51.98668 l 0.71064,10.51416 0,7.15547 c -1.5e-4,30.66634 -13.02865,52.61949 -39.08562,65.85952 -10.3283,4.77031 -21.6513,7.15547 -33.9691,7.15547 -32.7846,-1.26559 -49.1768,-5.4031 -49.1768,-12.41255 l 0,-155.96002 c 0.049,-4.12914 0.013,-23.30846 0.013,-23.30846 10e-5,-12.496867 -1.1789,-15.286403 9.1834,-15.421074 3.6402,-0.04731 6.7897,-0.04747 15.6761,0.03158 m 8.9542,113.027214 0,58.55802 c 0,6.13329 5.9694,11.39036 17.9083,15.77124 l 4.5482,0.73015 c 19.6139,2e-5 29.4208,-17.13414 29.4209,-51.40255 l 0,-5.84121 c -10e-5,-27.64824 -7.6751,-41.4724 -23.025,-41.47251 l -0.7107,0 c -9.5701,1.1e-4 -18.0979,5.25719 -25.5834,15.77124 -1.7055,3.01805 -2.5583,5.64659 -2.5583,7.88562"
       sodipodi:nodetypes="cscccsccsccsccsccsccsssccc" />
    <path
       inkscape:connector-curvature="0"
       id="path3086"
       style="font-size:295.04852295px;font-style:normal;font-variant:normal;font-weight:bold;font-stretch:normal;line-height:125%;letter-spacing:0px;word-spacing:0px;fill:#000000;fill-opacity:1;stroke:none;font-family:Brig Maven;-inkscape-font-specification:Brig Maven Bold"
       d="m -902.38773,160.41378 0.71064,0 c 28.99437,1.4e-4 47.13959,16.01474 54.4357,48.04387 l 0.56851,10.51416 c -0.75815,6.13334 -3.07959,9.19996 -6.96435,9.19988 l -77.4607,0 c -5e-5,24.92251 8.29085,40.49902 24.8727,46.7296 3.8848,1.75239 9.23836,2.62857 16.06065,2.62854 14.02337,3e-5 24.8726,-3.11527 32.54772,-9.34592 l 2.70046,-0.58412 c 3.6005,3e-5 6.34834,3.06666 8.24352,9.19989 -9.00166,17.52361 -25.8677,26.2854 -50.59818,26.2854 l -1.27917,0 c -31.93185,0 -53.25129,-13.58078 -63.95838,-40.74237 -3.41111,-10.61145 -5.11667,-20.93091 -5.11667,-30.95835 0,-29.0112 13.02855,-50.91568 39.08568,-65.7135 9.57001,-3.50458 18.2873,-5.25694 26.15187,-5.25708 m -27.43103,49.35814 0,0.58412 47.89771,0 0,-5.8412 c -1.89515,-17.52348 -9.14376,-26.28528 -21.74585,-26.2854 -12.60223,1.2e-4 -20.89312,7.20427 -24.8727,21.61244 l -1.27916,9.93004" />
    <path
       inkscape:connector-curvature="0"
       id="path3088"
       style="font-size:295.04852295px;font-style:normal;font-variant:normal;font-weight:bold;font-stretch:normal;line-height:125%;letter-spacing:0px;word-spacing:0px;fill:#000000;fill-opacity:1;stroke:none;font-family:Brig Maven;-inkscape-font-specification:Brig Maven Bold"
       d="m -787.26263,265.11728 c 1.23173,23.94893 -7.53293,36.60486 -26.294,37.9678 l -23.45141,-0.14603 c -3.41111,-1.4603 -5.11667,-4.33222 -5.11667,-8.61577 0,-5.45178 5.35355,-8.76178 16.06067,-9.93004 3.50584,-2.33646 5.25877,-5.45176 5.25879,-9.34592 l 0,-69.6563 c 0.28424,-17.13408 -4.12178,-25.70116 -13.21806,-25.70128 -5.59044,1.2e-4 -8.38566,-2.43371 -8.38566,-7.30151 l 0,-1.31427 c 0,-5.7437 3.648,-8.61562 10.94399,-8.61576 l 36.38522,-0.14604 c 5.21137,1.16839 7.81708,3.79692 7.81713,7.88562 l 0,6.71739 c 12.22309,-11.09814 24.92,-16.64728 38.09077,-16.64742 l 1.27917,0 c 22.07737,1.4e-4 36.29033,10.85503 42.63892,32.56469 1.3264,7.20425 1.98967,13.62955 1.98981,19.27596 l -0.14213,91.1227 -17.62408,0 c -10.99148,0.97354 -16.39241,-7.73957 -16.20279,-26.13936 l 0,-58.41199 c 0.47365,-14.31085 -1.80042,-23.80278 -6.82223,-28.47585 -2.65318,-3.11519 -6.49069,-4.67284 -11.51251,-4.67297 -15.25533,1.3e-4 -25.2044,7.30162 -29.84724,21.9045 -1.23185,7.20424 -1.84774,17.13427 -1.84769,29.79012 l 0,27.89173" />
    <path
       inkscape:connector-curvature="0"
       id="path3090"
       style="font-size:295.04852295px;font-style:normal;font-variant:normal;font-weight:bold;font-stretch:normal;line-height:125%;letter-spacing:0px;word-spacing:0px;fill:#000000;fill-opacity:1;stroke:none;font-family:Brig Maven;-inkscape-font-specification:Brig Maven Bold"
       d="m -680.45235,162.75025 c 1.98979,-17.71814 6.58531,-27.84287 13.78658,-30.37423 l 11.51251,0 c 5.59039,1.8e-4 8.38561,2.2393 8.38565,6.71739 l 0,25.84729 28.99447,0 c 4.35856,1.5e-4 6.53788,2.62869 6.53797,7.88562 l 0,4.67297 c -0.47386,5.35455 -2.65318,8.03177 -6.53797,8.03164 l -28.99447,0 0,67.61189 c -4e-5,18.59452 3.83745,27.89175 11.51251,27.89173 l 0.71065,0 c 5.59036,2e-5 12.88635,-2.19042 21.88798,-6.57135 5.21133,1.26563 7.81704,3.89415 7.81714,7.88562 l 0,1.31427 c -10e-5,4.38092 -5.40102,9.93004 -16.20279,16.64742 -6.72755,2.62854 -13.40764,3.94281 -20.04029,3.94281 l -1.84769,0 c -25.01486,0 -37.52227,-12.36386 -37.52225,-37.09162 l 0,-104.41145" />
    <path
       inkscape:connector-curvature="0"
       id="path3092"
       style="font-size:295.04852295px;font-style:normal;font-variant:normal;font-weight:bold;font-stretch:normal;line-height:125%;letter-spacing:0px;word-spacing:0px;fill:#000000;fill-opacity:1;stroke:none;font-family:Brig Maven;-inkscape-font-specification:Brig Maven Bold"
       d="m -595.60093,162.4582 33.54263,0 c 6.44316,1.55779 11.4177,7.73973 14.92362,18.54581 l 29.70511,77.24986 24.44631,-72.13881 c -1.1e-4,-3.21254 -2.79533,-5.25696 -8.38565,-6.13326 -5.11677,1.2e-4 -7.67511,-2.92048 -7.67501,-8.7618 -10e-5,-5.84106 2.79512,-8.76166 8.38565,-8.7618 l 45.90791,0 c 3.41096,1.16838 5.11652,3.4075 5.11667,6.71738 l 0,4.08883 c -1.5e-4,4.96515 -3.64815,7.44767 -10.94399,7.44753 -5.87483,2.23926 -11.46526,10.31958 -16.7713,24.24099 -1.3e-4,2.33657 -13.5972,35.68005 -40.79124,100.03053 l -5.82732,1.31427 -1.27917,0 c -5.30625,0 -9.38063,-4.96501 -12.22315,-14.89506 -15.06581,-31.34772 -29.70515,-65.324 -43.91809,-101.92893 -4.35866,-6.71725 -9.9491,-10.07593 -16.7713,-10.07607 -2.17933,-2.14164 -3.269,-4.62415 -3.269,-7.44753 l 0,-2.04441 c 0,-4.96488 1.94244,-7.44739 5.82732,-7.44753" />
  </g>
</svg>
